<?xml version="1.0" encoding="UTF-8"?>
<svg width="72px" height="72px" viewBox="0 0 72 72" version="1.1" xmlns="http://www.w3.org/2000/svg" xmlns:xlink="http://www.w3.org/1999/xlink">
    <!-- Generator: Sketch 63 (92445) - https://sketch.com -->
    <title>Artboard Copy</title>
    <desc>Created with Sketch.</desc>
    <g id="Artboard-Copy" stroke="none" stroke-width="1" fill="none" fill-rule="evenodd">
        <circle id="Oval" fill="#67FF80" cx="36" cy="36" r="36"></circle>
        <g id="--arw" transform="translate(25.000000, 20.000000)" fill="#0A141C" fill-rule="nonzero">
            <path d="M17.3669961,5.18721703 C17.7140987,4.90016687 18.2281811,4.94884896 18.5152313,5.29595154 L18.5152313,5.29595154 L26.7432586,15.2453256 C26.842011,15.3647375 26.9122008,15.4993723 26.9539711,15.6405052 C26.9607385,15.6621372 26.9667358,15.6848262 26.9718514,15.7078472 C26.9767992,15.7304009 26.9811332,15.7523699 26.9848046,15.774427 C26.9900908,15.8162924 26.9932768,15.8597466 26.9932768,15.903945 L26.9890839,15.8022911 C26.9983428,15.86807 27.0017473,15.9345118 26.9993108,16.0007983 C27.0016221,16.0648574 26.9984526,16.1290918 26.9897906,16.1927504 C26.9787763,16.2980884 26.9504678,16.3978984 26.9072292,16.4892628 C26.865841,16.582809 26.8113367,16.6723648 26.743258,16.7546858 L26.743258,16.7546858 L18.5151475,26.7041447 C18.4878066,26.7372054 18.4578996,26.768057 18.4257049,26.7964123 C18.0877137,27.094096 17.5723974,27.0614204 17.2747137,26.7234292 C16.9109462,26.3104063 16.9013668,25.6942293 17.2521194,25.2700981 L17.2521194,25.2700981 L24.089,17.004 L-4.1,17.004734 C-4.55882118,17.004734 -4.93745178,16.6613974 -4.99298772,16.2176281 L-5,16.104734 L-5,15.903945 C-5,15.4068887 -4.59705627,15.003945 -4.1,15.003945 L-4.1,15.003945 L24.094,15.003 L17.2521169,6.72991085 C16.9306,6.34113153 16.9118728,5.79097901 17.1911929,5.3838782 L17.2747571,5.27662616 C17.3031048,5.24444425 17.3339468,5.21454849 17.3669961,5.18721703 Z" id="Combined-Shape" transform="translate(11.000000, 16.000000) rotate(90.000000) translate(-11.000000, -16.000000) "></path>
        </g>
    </g>
</svg>